<?xml version="1.0" encoding="UTF-8" standalone="no"?>
<svg xmlns="http://www.w3.org/2000/svg" xmlns:sodipodi="http://sodipodi.sourceforge.net/DTD/sodipodi-0.dtd" xmlns:inkscape="http://www.inkscape.org/namespaces/inkscape" width="46.613" height="15.13" viewBox="0 0 13.155103 4.2693624" version="1.1">
 <metadata id="metadata6249"/>
 <g inkscape:label="Ebene 1" inkscape:groupmode="layer" id="layer1" transform="translate(-99.266312,-40.872742)">
  <path inkscape:connector-curvature="0" d="m 102.46533,42.050191 -0.003,0.0083 0.23289,0.06615 -0.46303,0.449241 0.48232,0.680751 0.74827,0.253559 0.86403,-0.926042 0.77584,0.21773 -0.32246,0.367936 6.55808,1.922364 1.03904,-1.741841 0,-0.03032 -6.53052,-1.369771 -0.55535,0.635275 -0.79099,-0.186035 0.19292,-0.206706 -0.41754,-0.923285 -0.59394,-0.09922 -0.85851,0.832335 -0.25081,-0.05926 0.47129,-0.476801 -2.65868,-0.544832 -1.018969,0.703824 2.700619,0.830439 z" id="path484" sodipodi:nodetypes="ccccccccccccccccccccccccc" stroke="#000000" stroke-width="0.088"/>
  <path inkscape:connector-curvature="0" d="m 112.39409,43.320751 -0.0165,-0.0028 0,0.0303 z m 0,0" id="path2570" fill="#8fbf3a"/>
 </g>
</svg>
